<?xml version="1.0" standalone="no"?><!DOCTYPE svg PUBLIC "-//W3C//DTD SVG 1.1//EN" "http://www.w3.org/Graphics/SVG/1.1/DTD/svg11.dtd"><svg t="1679207280194" class="icon" viewBox="0 0 1070 1024" version="1.1" xmlns="http://www.w3.org/2000/svg" p-id="14909" xmlns:xlink="http://www.w3.org/1999/xlink" width="75.234375" height="72"><path d="M940.218182 359.005091v451.956364a61.44 61.44 0 0 1-6.935273 29.696c-4.049455 7.773091-9.216 14.894545-15.313454 21.224727a75.403636 75.403636 0 0 1-24.948364 17.408c-8.145455 3.304727-16.896 5.026909-25.693091 5.026909H216.482909a64.884364 64.884364 0 0 1-48.360727-20.852364A70.516364 70.516364 0 0 1 148.945455 816.407273V359.005091l72.936727-226.304a93.090909 93.090909 0 0 1 17.594182-19.688727c11.822545-11.636364 30.254545-18.152727 55.249454-19.735273h499.618909c2.606545-1.024 13.498182 2.187636 32.628364 9.681454 19.176727 7.447273 32.581818 24.855273 40.308364 52.13091L940.218182 359.005091z m-95.185455-56.366546l-45.288727-135.912727H284.020364l-39.936 135.912727h600.948363z m-150.062545 340.247273c20.014545-23.645091 20.014545-58.228364 0-81.92a57.762909 57.762909 0 0 0-41.006546-15.825454H429.847273a57.856 57.856 0 0 0-41.006546 15.825454 56.087273 56.087273 0 0 0 41.006546 97.047273h224.116363c15.173818 0.791273 29.975273-4.654545 41.006546-15.080727z" fill="#34C0A3" p-id="14910"></path></svg>