<?xml version="1.0" standalone="no"?><!DOCTYPE svg PUBLIC "-//W3C//DTD SVG 1.1//EN" "http://www.w3.org/Graphics/SVG/1.1/DTD/svg11.dtd"><svg t="1679207009644" class="icon" viewBox="0 0 1024 1024" version="1.1" xmlns="http://www.w3.org/2000/svg" p-id="11347" xmlns:xlink="http://www.w3.org/1999/xlink" width="72" height="72"><path d="M828.2 131.4H702c-12.1-39.1-48.6-67.5-91.7-67.5H415.7c-43.1 0-79.6 28.4-91.7 67.5H196c-37.6 0-68 30.4-68 68v690.9c0 37.6 30.4 68 68 68h632.1c37.6 0 68-30.4 68-68V199.4c0.1-37.5-30.4-68-67.9-68zM513 724.3c0 17.6-14.3 31.9-31.9 31.9h-159c-17.6 0-31.9-14.3-31.9-31.9 0-17.6 14.3-31.9 31.9-31.9h159c17.6 0 31.9 14.3 31.9 31.9z m224.4-177.9c0 17.6-14.3 31.9-31.9 31.9h-385c-17.6 0-31.9-14.3-31.9-31.9 0-17.6 14.3-31.9 31.9-31.9h385.1c17.6 0 31.8 14.3 31.8 31.9z m0-177.9c0 17.6-14.3 31.9-31.9 31.9h-385c-17.6 0-31.9-14.3-31.9-31.9 0-17.6 14.3-31.9 31.9-31.9h385.1c17.6 0 31.8 14.3 31.8 31.9z" p-id="11348" fill="#36A3F7"></path></svg>